<svg width="76" height="98" viewBox="0 0 76 98" fill="none" xmlns="http://www.w3.org/2000/svg">
<path d="M37.676 97.3926L0.855469 72.9759V1.11035H74.6936V72.9751L37.676 97.3926Z" fill="#2C39F2" stroke="#2C39F2"/>
<path d="M59.3196 56.1417C60.1137 56.1417 60.9077 56.1417 61.7017 55.7393V63.7874C59.7166 64.391 57.136 64.9946 54.7539 64.9946C50.3867 64.9946 47.012 63.385 45.2254 60.1658C40.8582 63.385 35.8955 65.397 29.3447 65.1958C21.2058 65.1958 14.0594 60.367 14.2579 51.9165C14.4565 41.0516 24.779 37.8323 33.5134 37.8323C36.888 37.8323 40.8582 38.4359 43.8359 39.0396V37.4299C43.8359 33.2047 40.4612 30.1867 33.5134 30.1867C27.5581 30.1867 22.1983 31.5951 18.0296 33.2047V22.541C21.6028 21.3338 28.3521 19.7242 34.9029 19.9254C48.0046 20.1266 56.342 25.3578 56.1435 39.442L55.945 53.1237C56.342 55.5381 57.7316 56.1417 59.3196 56.1417ZM25.3745 51.3129C25.3745 54.7333 28.5506 57.1477 32.9178 57.1477C36.888 57.1477 40.4612 56.1417 43.8359 53.5261V46.2828C41.6523 45.6792 38.4761 45.0756 35.697 45.0756C30.3372 45.0756 25.3745 46.6852 25.3745 51.3129Z" fill="white"/>
</svg>
