<svg width="347" height="99" viewBox="0 0 347 99" fill="none" xmlns="http://www.w3.org/2000/svg">
<path d="M155.228 0.608398L126.444 50.3053L122.076 59.7618L123.069 51.3113L122.871 0.608398H100.836V98.3925H101.034H121.084L150.066 47.6897L154.037 38.8368L153.242 46.6836L153.441 98.3925H175.476L175.277 0.608398H155.228Z" fill="black"/>
<path d="M44.0691 0.609375H33.3496L0 98.3935H22.2331L43.4736 28.5764L64.7141 98.3935H87.9398L54.5902 0.609375H44.0691Z" fill="black"/>
<path d="M262.031 0.608398H199.5V22.9418V98.3925H221.535V22.9418H262.031V0.608398Z" fill="black"/>
<path d="M323.772 98.3925H346.998L313.648 0.608398H302.929H292.209L258.859 98.1913H281.092L286.651 79.6808H318.015L323.772 98.3925ZM292.606 61.5726L302.73 28.5755L312.656 61.5726H292.606Z" fill="black"/>
</svg>
