<svg width="314" height="100" viewBox="0 0 314 100" fill="none" xmlns="http://www.w3.org/2000/svg">
<path d="M19.0051 36.6188H16.8215C14.2409 36.6188 12.0572 36.2164 10.0721 35.4115C8.08704 34.6067 6.30047 33.3995 4.9109 32.1923C3.52134 30.9851 2.52877 29.1743 1.73474 27.1623C0.940697 25.1502 0.742188 23.1382 0.742188 20.925C0.742188 18.7118 1.13922 16.4986 1.93326 14.6877C2.7273 12.8769 3.71983 11.0661 5.10939 9.65769C6.49896 8.24928 8.28556 7.24327 10.2707 6.43846C12.2558 5.63365 14.6379 5.23125 17.02 5.23125H19.2036V0H22.5783V5.03005H24.7618C27.3425 5.03005 29.5261 5.43245 31.5112 6.23726C33.4963 7.04207 35.2829 8.24928 36.6724 9.45649C38.062 10.6637 39.0545 12.4745 39.8486 14.4865C40.6426 16.4986 41.0397 18.5106 41.0397 20.7238C41.0397 22.937 40.6426 25.1502 39.8486 26.9611C39.0545 28.7719 38.062 30.5827 36.6724 31.9911C35.2829 33.3995 33.6948 34.4055 31.5112 35.2103C29.5261 36.0151 27.144 36.4176 24.7618 36.4176H22.5783V41.4476H19.2036V36.6188H19.0051ZM19.0051 33.8019V7.64567H16.8215C14.8364 7.64567 13.0498 8.04808 11.4617 8.65168C9.87365 9.25529 8.68259 10.0601 7.49153 11.0661C6.30048 12.0721 5.50643 13.2793 4.9109 14.6877C4.31537 16.0962 4.11685 17.5046 4.11685 18.913V22.3334C4.11685 23.7418 4.31537 25.1502 4.9109 26.5587C5.50643 27.9671 6.30048 29.1743 7.49153 30.1803C8.68259 31.1863 9.87365 31.9911 11.4617 32.5947C13.0498 33.1983 14.8364 33.6007 16.8215 33.6007H19.0051V33.8019ZM24.5634 33.8019C26.5485 33.8019 28.1365 33.3995 29.7246 32.7959C31.3127 32.1923 32.7022 31.3875 33.6948 30.3815C34.6873 29.3755 35.6799 28.1683 36.2754 26.7599C36.871 25.3514 37.0695 23.943 37.0695 22.5346V19.1142C37.0695 17.7058 36.871 16.2974 36.2754 14.8889C35.6799 13.4805 34.8858 12.2733 33.6948 11.2673C32.5037 10.2613 31.3127 9.45649 29.7246 8.85289C28.1365 8.24928 26.35 7.84688 24.5634 7.84688H22.3798V34.0031H24.5634V33.8019Z" fill="black"/>
<path d="M51.957 40.04V1.40918H67.2423C70.617 1.40918 73.1976 2.41519 74.9842 4.22601C76.7708 6.23803 77.5648 8.85365 77.5648 12.0729C77.5648 15.4933 76.7708 18.1089 74.9842 19.9198C73.1976 21.9318 70.617 22.7366 67.2423 22.7366H55.3317V39.6375H51.957V40.04ZM55.3317 20.121H67.2423C69.4259 20.121 71.2124 19.5174 72.4035 18.3101C73.5946 17.1029 74.1901 15.4933 74.1901 13.6825V10.8657C74.1901 9.05485 73.5946 7.44524 72.4035 6.23803C71.2124 5.03081 69.6244 4.42721 67.2423 4.42721H55.3317V20.121Z" fill="black"/>
<path d="M101.982 40.6446C97.0196 40.6446 93.2479 39.035 90.2702 35.6146C87.4911 32.1941 86.1016 27.3653 86.1016 20.7256C86.1016 14.086 87.4911 9.25712 90.2702 5.83669C93.0494 2.41626 97.0196 0.806641 101.982 0.806641C106.945 0.806641 110.717 2.41626 113.496 5.83669C116.275 9.25712 117.665 14.086 117.665 20.7256C117.665 27.1641 116.275 32.1941 113.496 35.6146C110.717 39.035 106.945 40.6446 101.982 40.6446ZM101.982 37.8278C103.769 37.8278 105.556 37.4254 106.945 36.8218C108.533 36.2182 109.724 35.2122 110.717 34.005C111.709 32.7977 112.702 31.1881 113.297 29.3773C113.893 27.5665 114.091 25.5545 114.091 23.1401V18.3112C114.091 16.098 113.893 13.8848 113.297 12.0739C112.702 10.2631 111.908 8.65352 110.717 7.4463C109.724 6.23909 108.335 5.23308 106.945 4.62948C105.556 4.02587 103.769 3.62347 101.982 3.62347C100.196 3.62347 98.4092 4.02587 97.0196 4.62948C95.4315 5.23308 94.2405 6.23909 93.0494 7.4463C91.8583 8.65352 91.0643 10.2631 90.4687 12.0739C89.8732 13.8848 89.6747 15.8968 89.6747 18.3112V23.1401C89.6747 25.3533 89.8732 27.5665 90.4687 29.3773C91.0643 31.1881 91.8583 32.7977 93.0494 34.005C94.0419 35.2122 95.4315 36.2182 97.0196 36.8218C98.4092 37.4254 100.196 37.8278 101.982 37.8278Z" fill="black"/>
<path d="M153.998 21.9318H132.758V40.04H129.383V1.40918H132.758V18.9137H153.998V1.40918H157.373V40.04H153.998V21.9318Z" fill="black"/>
<path d="M183.172 4.42721V40.04H179.798V4.42721H166.895V1.40918H196.075V4.42721H183.172Z" fill="black"/>
<path d="M205.398 40.04V1.40918H228.029V4.42721H208.773V18.9137H227.036V21.9318H208.773V37.0219H228.029V40.04H205.398Z" fill="black"/>
<path d="M264.564 21.9318H243.324V40.04H239.949V1.40918H243.324V18.9137H264.564V1.40918H267.939V40.04H264.564V21.9318Z" fill="black"/>
<path d="M276.676 37.0219H280.646C282.433 34.6075 283.624 31.3883 284.616 27.3642C285.609 23.3402 286.006 18.3101 286.006 12.2741V1.40918H307.842V37.0219H313.003V48.2892H309.827V40.0399H279.852V48.2892H276.676V37.0219ZM304.467 37.0219V4.42721H289.182V12.6765C289.182 18.7125 288.785 23.7426 287.991 27.7666C287.197 31.7907 286.006 34.8087 284.616 37.0219V37.2231H304.467V37.0219Z" fill="black"/>
<path d="M30.3173 99.3954L26.1486 87.3233H9.67228L5.50359 99.3954H2.12891L15.8261 60.7646H19.9948L33.6919 99.3954H30.3173ZM17.8112 63.9839H17.6127L10.4663 84.5065H25.156L17.8112 63.9839Z" fill="black"/>
<path d="M44.2174 96.3774H49.5771L51.7607 90.9449L37.2695 60.7646H40.8427L50.5696 81.086L53.1503 86.7197H53.3488L55.5324 80.8848L63.6713 60.7646H67.046L52.9518 95.975C52.3563 97.3834 51.7607 98.1882 50.9667 98.7918C50.1726 99.1942 49.1801 99.3954 47.7905 99.3954H44.2174V96.3774Z" fill="black"/>
<path d="M89.0747 63.7827V99.3954H85.7V63.7827H72.7969V60.7646H101.978V63.7827H89.0747Z" fill="black"/>
<path d="M123.618 100C118.854 100 115.082 98.3905 112.501 94.9701C109.921 91.5496 108.531 86.7208 108.531 80.0811C108.531 73.6427 109.921 68.6126 112.501 65.1922C115.082 61.7718 118.854 59.9609 123.618 59.9609C126.794 59.9609 129.375 60.7657 131.558 62.1742C133.742 63.5826 135.33 65.5946 136.521 68.2102L133.742 69.8198C132.948 67.8078 131.558 65.997 129.97 64.7898C128.184 63.5826 126.199 62.979 123.817 62.979C120.243 62.979 117.464 64.1862 115.281 66.8018C113.295 69.4174 112.303 73.0391 112.303 77.8679V82.4956C112.303 87.3244 113.295 90.946 115.281 93.3605C117.266 95.7749 120.045 97.1833 123.817 97.1833C126.397 97.1833 128.581 96.5797 130.367 95.1713C132.154 93.9641 133.345 92.1533 134.338 89.94L137.117 91.5496C135.926 94.1653 134.337 96.3785 132.154 97.7869C129.375 99.1953 126.794 100 123.618 100Z" fill="black"/>
<path d="M160.537 100C155.574 100 151.803 98.3905 148.825 94.97C146.046 91.5496 144.656 86.7208 144.656 80.0811C144.656 73.4414 146.046 68.6126 148.825 65.1922C151.604 61.7717 155.574 60.1621 160.537 60.1621C165.5 60.1621 169.271 61.7717 172.051 65.1922C174.83 68.6126 176.219 73.4414 176.219 80.0811C176.219 86.5196 174.83 91.5496 172.051 94.97C169.271 98.3905 165.5 100 160.537 100ZM160.537 97.1833C162.324 97.1833 164.11 96.7809 165.5 96.1773C167.088 95.5737 168.279 94.5676 169.271 93.3604C170.264 92.1532 171.257 90.5436 171.852 88.7328C172.448 86.922 172.646 84.9099 172.646 82.4955V77.6667C172.646 75.4535 172.448 73.2402 171.852 71.4294C171.257 69.6186 170.462 68.009 169.271 66.8018C168.279 65.5946 166.889 64.5886 165.5 63.9849C164.11 63.3813 162.324 62.9789 160.537 62.9789C158.75 62.9789 156.964 63.3813 155.574 63.9849C153.986 64.5886 152.795 65.5946 151.604 66.8018C150.413 68.009 149.619 69.6186 149.023 71.4294C148.428 73.2402 148.229 75.2523 148.229 77.6667V82.4955C148.229 84.7087 148.428 86.922 149.023 88.7328C149.619 90.5436 150.413 92.1532 151.604 93.3604C152.597 94.5676 153.986 95.5737 155.574 96.1773C156.964 96.7809 158.75 97.1833 160.537 97.1833Z" fill="black"/>
<path d="M188.133 99.3954V60.7646H203.418C206.793 60.7646 209.373 61.7707 211.16 63.5815C212.947 65.5935 213.741 68.2091 213.741 71.4283C213.741 74.8488 212.947 77.4644 211.16 79.2752C209.373 81.2872 206.793 82.092 203.418 82.092H191.507V98.993H188.133V99.3954ZM191.507 79.4764H203.418C205.602 79.4764 207.388 78.8728 208.579 77.6656C209.77 76.4584 210.366 74.8488 210.366 73.038V70.4223C210.366 68.6115 209.77 67.0019 208.579 65.7947C207.388 64.5875 205.8 63.9839 203.418 63.9839H191.507V79.4764Z" fill="black"/>
<path d="M237.36 100C232.596 100 228.824 98.3905 226.244 94.9701C223.663 91.5496 222.273 86.7208 222.273 80.0811C222.273 73.6427 223.663 68.6126 226.244 65.1922C228.824 61.7718 232.596 59.9609 237.36 59.9609C240.536 59.9609 243.117 60.7657 245.301 62.1742C247.484 63.5826 249.072 65.5946 250.263 68.2102L247.484 69.8198C246.69 67.8078 245.301 65.997 243.713 64.7898C241.926 63.5826 239.941 62.979 237.559 62.979C233.986 62.979 231.206 64.1862 229.023 66.8018C227.038 69.4174 226.045 73.0391 226.045 77.8679V82.4956C226.045 87.3244 227.038 90.946 229.023 93.3605C231.008 95.7749 233.787 97.1833 237.559 97.1833C240.139 97.1833 242.323 96.5797 244.109 95.1713C245.896 93.9641 247.087 92.1533 248.08 89.94L250.859 91.5496C249.668 94.1653 248.08 96.3785 245.896 97.7869C243.117 99.1953 240.338 100 237.36 100Z" fill="black"/>
</svg>
